<svg width="48px" height="48px" viewBox="0 0 80 80" fill="none" xmlns="http://www.w3.org/2000/svg">
<path d="M66.6667 10H13.3333C11.4917 10 10 11.4917 10 13.3333V66.6667C10 68.5083 11.4917 70 13.3333 70H66.6667C68.5083 70 70 68.5083 70 66.6667V13.3333C70 11.4917 68.5083 10 66.6667 10Z" fill="url(#paint0_linear_3_119)"/>
<path opacity="0.05" d="M64.6983 51.01C63.3417 49.235 61.5333 48.205 59.78 47.3583C59.2483 47.1017 58.715 46.85 58.1817 46.5983C57.0733 46.0767 55.9267 45.5367 54.845 44.96C54.0367 44.5283 54.2083 44.1117 54.3 43.8867C54.3867 43.675 54.74 43.5267 55.16 43.5267C55.285 43.5267 55.4133 43.54 55.54 43.5633C56.0133 43.6517 56.9 44.4083 57.3633 45.1183L57.8167 45.8117L58.2683 46.505L58.965 46.0567L59.6617 45.6083C59.7983 45.52 63.0367 43.4383 64.26 42.5517L64.7667 42.185L65.2733 41.8183L65.0633 41.23L64.8533 40.6417C64.7717 40.4117 62.7467 35.0083 54.485 35.0083H54.475C51.79 35.0783 49.5217 36.0133 47.6983 37.79C47.315 38.165 46.975 38.5833 46.67 39.0317V36.6667V35.8333V35H45.8367H45H23.3333H22.5H21.6667V35.8333V36.6667V41.7233V42.5567V43.39H22.5H23.3333H29.9533V64.9533V65.7867V66.62H30.7867H31.62H36.6083H37.4383H38.2683L38.2717 65.79L38.275 64.96L38.3567 43.39H45H45.1233C45.085 43.7867 45.06 44.1883 45.0683 44.595C45.12 47.2167 46.175 49.6433 47.9633 51.2517C49.1733 52.34 50.5717 53.1083 51.925 53.8517L52.2817 54.0483C53.1833 54.5467 54.1083 54.9833 55.0017 55.4067C55.7117 55.7433 56.4033 56.07 57.08 56.425C57.3317 56.5567 57.4317 56.73 57.4217 57.0217C57.41 57.415 57.2567 57.63 56.8783 57.79C56.2983 58.035 55.7333 58.1583 55.1967 58.1583C54.39 58.1583 53.6067 57.8733 52.865 57.31C52.4683 57.0083 52.08 56.5517 51.6667 56.0667C51.4317 55.7917 51.1933 55.5133 50.94 55.2383L50.485 54.7483L50.03 54.2583L49.4533 54.595L48.8767 54.9317C47.4283 55.7767 44.1367 57.7583 44.1367 57.7583L43.4333 58.1817L42.73 58.605L43.1433 59.315L43.5567 60.025C44.745 62.0633 46.4083 63.8367 48.0083 64.7717C50.2267 66.0683 52.65 66.725 55.2117 66.725C56.6067 66.725 58.07 66.5283 59.5617 66.1417C62.7817 65.3067 65.115 63.2233 66.1317 60.275C67.2017 57.185 66.6383 53.5467 64.6983 51.01Z" fill="black"/>
<path opacity="0.05" d="M54.4833 35.8416H54.4733H54.4617C52.0267 35.9049 49.9467 36.7616 48.2783 38.3866C46.7217 39.9049 45.855 42.1599 45.9033 44.5782C45.9517 46.9716 46.905 49.1782 48.5217 50.6332C49.66 51.6566 51.0167 52.4032 52.3283 53.1232L52.685 53.3199C53.565 53.8049 54.4767 54.2382 55.36 54.6566C56.0683 54.9916 56.7767 55.3266 57.4683 55.6899C58.0033 55.9699 58.2767 56.4416 58.2567 57.0516C58.2333 57.7682 57.88 58.2766 57.205 58.5616C56.5217 58.8499 55.8483 58.9949 55.2 58.9949C54.2083 58.9949 53.2533 58.6516 52.3633 57.9766C51.895 57.6216 51.4767 57.1299 51.035 56.6099C50.8083 56.3449 50.5783 56.0732 50.3317 55.8082L49.8767 55.3182L49.3 55.6549C47.855 56.4982 44.57 58.4766 44.57 58.4766L43.8667 58.8999L44.28 59.6099C45.3983 61.5299 46.95 63.1916 48.4317 64.0566C50.5217 65.2766 52.8033 65.8966 55.215 65.8966C56.54 65.8966 57.9317 65.7099 59.355 65.3399C62.295 64.5766 64.4233 62.6832 65.3467 60.0082C66.325 57.1716 65.8117 53.8399 64.0367 51.5182C62.7867 49.8816 61.0783 48.9132 59.4183 48.1099C58.89 47.8549 58.3583 47.6032 57.8267 47.3532C56.7083 46.8266 55.5517 46.2816 54.4517 45.6949C53.5017 45.1882 53.1733 44.4349 53.5267 43.5716C53.7483 43.0299 54.3733 42.6932 55.1583 42.6932C55.3333 42.6932 55.5133 42.7099 55.6933 42.7449C56.4783 42.8916 57.5333 43.8566 58.06 44.6649L58.5117 45.3582L59.2083 44.9099C59.345 44.8216 62.5733 42.7449 63.77 41.8799L64.2767 41.5132L64.0667 40.9249C63.9933 40.7149 62.165 35.8416 54.4833 35.8416Z" fill="black"/>
<path opacity="0.05" d="M45.8333 35.8333H45H23.3333H22.5V36.6666V41.7233V42.5566H23.3333H30.7867V64.9533V65.7866H31.62H36.6083H37.4383L37.4417 64.9566L37.5267 42.5566H45H45.8333V41.7233V36.6666V35.8333Z" fill="black"/>
<path d="M49.72 56.3734C50.47 57.1817 51.0683 58.0367 51.86 58.6384C53.5783 59.945 55.5217 60.1734 57.5283 59.3267C58.4933 58.9201 59.0567 58.1334 59.09 57.0767C59.12 56.1434 58.67 55.3784 57.855 54.9501C56.285 54.1267 54.6383 53.445 53.0867 52.5884C51.6967 51.8217 50.245 51.0617 49.0783 50.0117C45.9867 47.2284 45.9933 41.775 48.8583 38.9834C50.4167 37.465 52.2983 36.7317 54.4817 36.675C61.665 36.675 63.28 41.2017 63.28 41.2017C62.0883 42.0634 58.7567 44.2067 58.7567 44.2067C58.16 43.2917 56.94 42.13 55.845 41.9234C54.4683 41.665 53.19 42.1884 52.7533 43.2534C52.25 44.4817 52.6867 45.6967 54.0567 46.4284C55.6883 47.2984 57.385 48.05 59.0517 48.8567C60.685 49.6467 62.2483 50.5534 63.3717 52.0217C66.2117 55.7367 65.6467 62.8451 59.1433 64.5317C55.5883 65.4534 52.1133 65.2434 48.8483 63.335C47.31 62.4367 45.8767 60.7001 44.9967 59.1884C45 59.1884 48.2783 57.2151 49.72 56.3734Z" fill="white"/>
<path d="M23.3333 36.6667V41.7234H31.62V64.9534H36.6083L36.6967 41.7234H45V36.6667H23.3333Z" fill="white"/>
<defs>
<linearGradient id="paint0_linear_3_119" x1="10" y1="40" x2="70" y2="40" gradientUnits="userSpaceOnUse">
<stop stop-color="#0D61A9"/>
<stop offset="1" stop-color="#16528C"/>
</linearGradient>
</defs>
</svg>
